# xmcd
#
# Track frame offsets:
#	183
#	20738
#	34515
#	45105
#	56718
#	70658
#	83133
#	94978
#	106955
#	121568
#	133893
#	144970
#	157013
#	168220
#	179815
#	190813
#	201748
#	217090
#	229603
#	243020
#	253895
#	273788
#
# Disc length: 3901 seconds
#
# Revision: 1
# Processed by: cddbd v1.5.2PL0 Copyright (c) Steve Scherf et al.
# Submitted via: audiograbber 1.83.01
#
DISCID=370f3b16
DTITLE=101 Strings Orchestra - The Country Collection
DYEAR=1993
DGENRE=Country
TTITLE0=Lovesick Blues
TTITLE1=Your Cheatin' Heart
TTITLE2=I Can't Stop Loving You
TTITLE3=Jambalaya
TTITLE4=Have You Ever Been Lonely
TTITLE5=Kaw Liga
TTITLE6=Bouquet Of Roses
TTITLE7=Wabash Cannonball
TTITLE8=Cold Cold Heart
TTITLE9=Half As Much
TTITLE10=King Of The Road
TTITLE11=Crazy
TTITLE12=Send Me The Pillow That You Dream On
TTITLE13=Little Green Apples
TTITLE14=Take These Chains From My Heart
TTITLE15=Tennessee Waltz
TTITLE16=Ode To Billie Joe
TTITLE17=I Don't Hurt Anymore
TTITLE18=Four Walls
TTITLE19=You Are My Sunshine
TTITLE20=In The Jailhouse Now
TTITLE21=An American Trilogy
EXTD=
EXTT0=
EXTT1=
EXTT2=
EXTT3=
EXTT4=
EXTT5=
EXTT6=
EXTT7=
EXTT8=
EXTT9=
EXTT10=
EXTT11=
EXTT12=
EXTT13=
EXTT14=
EXTT15=
EXTT16=
EXTT17=
EXTT18=
EXTT19=
EXTT20=
EXTT21=
PLAYORDER=
